PathFileType	4	(X/Y/Z)	C:/Users/opensim2020/Desktop/walking_exp_matlab/subject06_walking12_straigt_02.trc	
DataRate	CameraRate	NumFrames	NumMarkers	Units	OrigDataRate	OrigDataStartFrame	OrigNumFrames	
100.00	100.00	4	48	mm	100.00	1601	215	
Frame#	Time	LFHD			RFHD			LBHD			RBHD			C7			T10			CLAV			STRN			RBAK			LSHO			LUPA			LELB			LFRM			LWRA			LWRB			LFIN			RSHO			RUPA			RELB			RFRM			RWRA			RWRB			RFIN			LASI			RASI			LPSI			RPSI			LTHI			LKNE			LTIB			LANK			LHEE			LTOE			RTHI			RKNE			RTIB			RANK			RHEE			RTOE			*39			*40			*41			*42			*43			*44			*45			*46			*47			
		X1	Y1	Z1	X2	Y2	Z2	X3	Y3	Z3	X4	Y4	Z4	X5	Y5	Z5	X6	Y6	Z6	X7	Y7	Z7	X8	Y8	Z8	X9	Y9	Z9	X10	Y10	Z10	X11	Y11	Z11	X12	Y12	Z12	X13	Y13	Z13	X14	Y14	Z14	X15	Y15	Z15	X16	Y16	Z16	X17	Y17	Z17	X18	Y18	Z18	X19	Y19	Z19	X20	Y20	Z20	X21	Y21	Z21	X22	Y22	Z22	X23	Y23	Z23	X24	Y24	Z24	X25	Y25	Z25	X26	Y26	Z26	X27	Y27	Z27	X28	Y28	Z28	X29	Y29	Z29	X30	Y30	Z30	X31	Y31	Z31	X32	Y32	Z32	X33	Y33	Z33	X34	Y34	Z34	X35	Y35	Z35	X36	Y36	Z36	X37	Y37	Z37	X38	Y38	Z38	X39	Y39	Z39	X40	Y40	Z40	X41	Y41	Z41	X42	Y42	Z42	X43	Y43	Z43	X44	Y44	Z44	X45	Y45	Z45	X46	Y46	Z46	X47	Y47	Z47	X48	Y48	Z48	

162	1.610	1511.22449	-477.75684	1675.51563	1379.55542	-471.41434	1661.06555	1518.59644	-343.08612	1623.66089	1389.76196	-338.65063	1615.05896	1462.49060	-338.69019	1458.44543	1450.27051	-321.30005	1127.54407	1460.07642	-452.10989	1387.84924	1466.37195	-504.25800	1214.27698	1383.81738	-275.30066	1283.17395	1622.40759	-391.97037	1414.19995	1692.88354	-413.41269	1211.42810	1704.27405	-427.03094	1099.46643	1722.18311	-487.04025	960.91986	1674.09802	-571.76147	866.09326	1714.62012	-517.17395	845.37823	1715.00928	-579.13776	780.85431	1299.29810	-402.51501	1416.35120	1216.48376	-366.65915	1214.63708	1208.56519	-375.28210	1093.05481	1191.38721	-386.79697	973.19330	1217.23071	-446.11795	832.26410	1182.16016	-388.78537	835.62341	1176.87732	-422.18317	758.14148	1562.27197	-499.55698	972.84686	1343.05066	-498.86087	975.47430	1531.24072	-339.79572	999.09003	1363.66809	-347.38489	995.04877	1612.97498	-431.70486	656.59052	1584.68396	-430.04425	493.28397	1565.03125	-375.09650	240.87521	1510.33801	-359.08029	73.16053	1463.88770	-318.85513	62.62891	1512.41785	-503.23410	40.68151	1277.05603	-515.06335	646.91010	1296.22876	-558.35529	528.28192	1298.02002	-417.20294	312.67261	1338.31262	-310.29114	160.37151	1386.98132	-266.95972	152.56987	1321.98767	-425.13315	61.06405	1455.07861	-375.70734	1714.29932																								 
163	1.620	1511.26257	-488.35071	1675.55237	1379.62549	-482.06189	1660.89221	1518.85889	-353.78668	1623.71387	1390.09961	-349.21829	1614.84375	1462.95081	-349.26007	1458.52002	1450.92676	-330.97766	1127.79688	1460.62439	-462.44281	1387.73938	1467.42273	-514.08319	1213.97412	1384.49255	-285.40863	1283.44580	1622.85413	-402.69955	1414.53760	1693.75671	-427.16156	1212.33032	1705.46338	-442.99835	1100.59253	1722.94556	-507.49905	963.96509	1674.57629	-595.88934	872.81201	1714.69910	-541.86530	849.65350	1715.02112	-606.32764	787.79724	1299.80811	-413.26321	1415.98230	1217.32739	-375.40106	1214.31726	1209.61121	-382.45724	1092.80042	1192.51709	-391.80371	972.71948	1218.53674	-447.78928	830.35675	1183.20325	-390.68796	835.09558	1178.22217	-422.19211	756.76672	1563.47998	-507.92578	972.22693	1344.02258	-509.03363	975.68268	1531.12256	-348.90530	999.07599	1363.55286	-357.53610	995.30212	1613.31616	-437.98993	656.22681	1584.67310	-434.92294	493.00708	1564.88745	-377.35873	241.18013	1510.05591	-359.64090	73.61524	1463.44482	-319.41107	63.39949	1512.40186	-503.13248	40.21336	1278.10486	-528.99268	648.41644	1298.35791	-573.10803	530.25897	1299.31360	-439.35007	308.77008	1338.99280	-339.86661	151.33754	1387.62549	-297.27893	140.74254	1322.41150	-459.94916	58.53482	1455.11609	-386.27856	1714.22729																								 
164	1.630	1511.18396	-499.05823	1675.52307	1379.59314	-492.64404	1660.62805	1519.06250	-364.43188	1623.73242	1390.26172	-359.80066	1614.66284	1463.33167	-359.68698	1458.57886	1451.48218	-340.79193	1127.97559	1461.13123	-472.81152	1387.50940	1468.31006	-523.87061	1213.63733	1385.25964	-295.55377	1283.61597	1623.23767	-413.32129	1414.77966	1694.57910	-440.65790	1213.24292	1706.59961	-458.81741	1101.80481	1723.93787	-527.97656	967.62567	1674.88416	-619.44739	879.88580	1714.54480	-566.18225	854.26294	1714.84570	-633.09991	795.15735	1300.21606	-423.87613	1415.55042	1218.27124	-384.41696	1214.08862	1210.54639	-389.95053	1092.53162	1193.57886	-396.86136	972.22638	1219.44238	-449.99289	828.61243	1184.24719	-392.78802	834.60950	1179.50378	-422.30170	755.45160	1564.41455	-513.93579	970.38733	1344.83521	-519.15515	975.83154	1531.15894	-357.93134	998.96338	1363.58264	-367.63730	995.49048	1613.25037	-444.39392	655.93982	1584.35571	-439.43381	492.66464	1564.69531	-379.46390	241.43092	1509.80518	-360.18710	74.03970	1463.16675	-320.55673	63.61879	1512.44507	-503.32047	40.15521	1279.19690	-542.37433	649.81091	1300.40918	-587.17957	532.20691	1300.58191	-461.32703	305.02057	1339.82715	-369.94189	142.37636	1388.49097	-327.56448	129.57088	1322.96558	-494.71262	56.35100	1455.09521	-396.92410	1714.15576																								 
165	1.640	1511.04529	-509.74133	1675.37341	1379.52551	-503.21164	1660.26392	1519.22925	-375.12659	1623.75537	1390.43323	-370.33093	1614.43420	1463.72400	-370.15506	1458.54553	1451.90955	-350.61642	1127.97571	1461.52637	-483.07065	1387.21973	1469.09375	-533.71118	1213.27527	1386.06616	-305.54269	1283.76184	1623.57080	-424.01343	1415.03345	1695.25354	-453.95990	1214.13696	1707.54944	-474.39697	1103.06738	1724.04443	-547.70483	970.97058	1674.98096	-642.44952	887.23004	1714.33752	-590.17426	859.24573	1714.40393	-659.36755	802.93762	1300.50012	-434.39407	1415.07751	1219.05591	-393.21078	1213.69983	1211.52368	-397.41257	1092.17468	1194.66821	-402.08713	971.75311	1220.40796	-452.38983	827.13739	1185.27405	-395.16281	834.20239	1180.73547	-423.03461	754.38794	1565.18115	-525.25073	970.72992	1345.51282	-529.35272	975.92181	1531.13770	-367.17993	998.65161	1363.56274	-377.54031	995.59637	1613.03149	-450.77182	655.63464	1584.24329	-444.06259	492.35345	1564.52185	-381.59805	241.68137	1509.54651	-360.65704	74.43088	1462.83667	-320.32602	64.53623	1512.46594	-503.49493	40.09371	1280.06006	-555.54352	651.10925	1302.24475	-600.76251	533.82001	1301.85596	-483.24142	301.10690	1340.74719	-400.56873	133.69789	1389.24500	-359.38974	118.51144	1323.44543	-529.51117	54.41673	1455.03442	-407.65073	1714.00354																								 
